<svg width="450" height="240" viewBox="0 0 450 240" fill="none" xmlns="http://www.w3.org/2000/svg">
<rect x="1.25" width="448" height="240" fill="#F7EDF7"/>
<path d="M283.422 65.2608C282.952 62.0889 281.268 59.3085 278.723 57.4288C276.138 55.5491 273.005 54.7659 269.833 55.2359C265.604 55.8624 258.007 62.8517 253.504 66.611C252.211 60.8545 249.783 50.4583 246.807 47.4039C244.575 45.1326 241.599 43.8403 238.427 43.762C238.349 43.762 238.27 43.762 238.192 43.762C235.098 43.762 232.161 44.9368 229.929 47.1297C225.191 51.7115 225.073 59.3085 229.694 64.0077C233.414 67.8454 246.964 71.174 251.115 72.1139C253.66 73.2887 266.152 78.8886 272.261 78.8886C272.692 78.8886 273.084 78.8494 273.397 78.8102C276.569 78.3403 279.349 76.6564 281.229 74.111C283.109 71.5656 283.892 68.3937 283.422 65.2608ZM277.744 71.5656C276.53 73.2103 274.768 74.2677 272.731 74.5809C270.362 74.9429 264.316 72.9823 258.727 70.7437C257.285 70.166 256.998 68.2745 258.206 67.2971C262.878 63.5158 268.092 59.8661 270.46 59.5043C272.457 59.191 274.493 59.7001 276.138 60.9141C277.783 62.128 278.84 63.8902 279.153 65.9266C279.467 67.9237 278.958 69.9209 277.744 71.5656ZM238.231 48.0696H238.349C240.385 48.1087 242.304 48.9311 243.714 50.38C245.391 52.123 247.317 58.2019 248.749 64.0478C249.119 65.5587 247.744 66.894 246.245 66.4794C240.45 64.8774 234.465 62.7807 232.788 61.0707C229.851 58.0554 229.929 53.1995 232.945 50.2625C234.354 48.8528 236.234 48.0696 238.231 48.0696Z" fill="#533582"/>
<path d="M310.165 91.2625L307.072 100.935L303.352 99.7211L306.445 90.0486L310.165 91.2625Z" fill="#260206"/>
<path d="M230.166 64.8299L227.033 74.7374L223.312 73.5235L226.445 63.616L230.166 64.8299Z" fill="#260206"/>
<path d="M330.495 97.9793C331.581 98.3381 332.18 99.5 331.842 100.593L330.104 106.22C329.758 107.34 328.56 107.96 327.445 107.595L307.074 100.936L310.168 91.2632L330.495 97.9793Z" fill="#9A69C7"/>
<path d="M306.447 90.0489L303.353 99.7214L276.02 90.7929L279.466 81.1204L306.447 90.0489Z" fill="#9A69C7"/>
<path d="M279.467 81.1204L276.021 90.793L227.031 74.7373L230.164 64.8298L279.467 81.1204Z" fill="#C792E0"/>
<path d="M226.444 63.6159L223.311 73.5234L183.62 60.5541C182.511 60.1915 181.91 58.9934 182.283 57.8873L184.306 51.8874C184.675 50.7933 185.858 50.2025 186.955 50.5648L226.444 63.6159Z" fill="#C792E0"/>
<path d="M230.166 64.8299L227.033 74.7374L223.312 73.5235L226.445 63.616L230.166 64.8299Z" fill="white"/>
<path d="M310.165 91.2625L307.072 100.935L303.352 99.7211L306.445 90.0486L310.165 91.2625Z" fill="white"/>
<g style="mix-blend-mode:multiply">
<rect x="189.094" y="121.055" width="141.692" height="83.9325" rx="7.22" fill="#F7EDF7"/>
</g>
<path d="M311.156 109.323C315.143 109.323 318.376 112.555 318.376 116.543V186.035C318.376 190.023 315.143 193.255 311.156 193.255H269.953L269.641 109.323H311.156Z" fill="#9A69C7"/>
<path d="M270.543 193.255H184.806C180.818 193.255 177.586 190.023 177.586 186.035V116.543C177.586 112.555 180.818 109.323 184.806 109.323H270.231L270.543 193.255Z" fill="#C792E0"/>
<path d="M222.712 109.323H219.102V193.255H222.712V109.323Z" fill="white"/>
<path d="M296.715 109.323H293.105V193.255H296.715V109.323Z" fill="white"/>
<path d="M127.929 86.0841C130.285 85.6302 132.372 84.6644 134.064 82.9244C134.237 82.7439 134.393 82.5524 134.482 82.3112C134.725 81.6582 134.482 80.919 133.9 80.5405C133.299 80.1454 132.541 80.2086 132.016 80.7446C131.306 81.4674 130.516 82.0539 129.592 82.4714C127.841 83.2681 126.004 83.4762 124.107 83.3211C120.639 83.0335 118.446 81.3349 117.229 77.7897C117.111 77.4518 117.141 77.3173 117.551 77.2497C119.995 76.8448 122.089 75.7453 123.814 73.9576C124.613 73.1329 125.168 72.1723 125.422 71.049C125.983 68.5219 124.706 66.3538 122.258 65.7147C120.6 65.2838 119.119 65.7164 117.855 66.8022C115.708 68.6463 114.486 71.0183 114.051 73.796C113.985 74.2103 113.859 74.2672 113.496 74.1648C109.937 73.1613 107.522 70.9373 106.271 67.4514C106.135 67.0794 106.176 66.9271 106.608 66.847C108.371 66.5083 109.949 65.7587 111.37 64.667C112.329 63.9292 113.191 63.1021 113.771 62.0187C115.245 59.2543 113.909 55.9572 110.974 55.1914C108.971 54.669 107.271 55.2897 105.876 56.7517C104.207 58.4966 103.253 60.5976 102.913 62.9829C102.867 63.3095 103.013 63.7913 102.723 63.9356C102.443 64.0737 102.035 63.8512 101.694 63.7364C99.4076 62.9404 97.4642 61.7023 96.7057 59.2653C95.6104 55.7387 95.885 52.387 98.3087 49.4188C98.8523 48.7545 98.7783 47.8639 98.1545 47.3188C97.5367 46.7792 96.6453 46.8301 96.0538 47.4556C95.9031 47.6121 95.7586 47.7799 95.6316 47.9529C92.6459 52.1778 92.3348 56.7201 94.3878 61.342C95.9024 64.76 98.9486 66.3222 102.5 66.9721C102.897 67.0443 103.087 67.1532 103.213 67.5719C104.713 72.7714 108.117 75.9851 113.388 77.1738C113.921 77.2931 114.08 77.5133 114.214 78.0014C115.244 81.803 117.364 84.6473 121.312 85.8102C122.761 86.2373 124.251 86.3671 125.821 86.3372C126.481 86.295 127.21 86.2271 127.929 86.0841ZM105.852 63.6906C106.044 61.7111 106.809 59.9943 108.254 58.6116C108.646 58.2372 109.125 58.0162 109.682 58.0012C110.632 57.9713 111.354 58.6578 111.372 59.6085C111.387 60.1706 111.167 60.6487 110.823 61.0619C109.573 62.5416 107.978 63.4543 106.109 63.9072C105.902 63.9556 105.826 63.9352 105.852 63.6906ZM117.035 74.0321C117.423 72.0045 118.327 70.2709 119.949 68.9571C120.506 68.5069 121.152 68.4073 121.837 68.7238C122.333 68.9547 122.567 69.3287 122.561 69.6364C122.559 70.5009 122.336 71.0603 121.937 71.5394C120.709 73.0009 119.136 73.8837 117.27 74.2611C117.034 74.3106 116.997 74.2423 117.035 74.0321Z" fill="#E5CFE8"/>
<path d="M277.842 38.3322C280.419 38.3322 282.508 36.2431 282.508 33.6661C282.508 31.0891 280.419 29 277.842 29C275.265 29 273.176 31.0891 273.176 33.6661C273.176 36.2431 275.265 38.3322 277.842 38.3322Z" fill="white"/>
<path d="M157.044 83.9566C158.762 83.9566 160.155 82.5639 160.155 80.8459C160.155 79.1278 158.762 77.7351 157.044 77.7351C155.326 77.7351 153.934 79.1278 153.934 80.8459C153.934 82.5639 155.326 83.9566 157.044 83.9566Z" fill="#9A69C7"/>
<path d="M306.947 61.7205C307.568 62.4701 307.494 63.5837 306.76 64.2571C306.407 64.5775 306.04 64.8914 305.655 65.1735C305.362 65.3885 305.301 65.5594 305.577 65.8476C305.872 66.1477 306.123 66.4841 306.385 66.8115C307.091 67.685 307.022 68.8041 306.228 69.4719C305.412 70.1578 304.289 70.0177 303.539 69.135C303.252 68.8003 302.96 68.4702 302.7 68.1128C302.512 67.863 302.37 67.8699 302.149 68.0714C301.796 68.3918 301.425 68.6903 301.044 68.9878C300.205 69.6464 299.075 69.5308 298.433 68.7339C297.809 67.9589 297.922 66.849 298.703 66.1647C299.06 65.8498 299.432 65.5414 299.808 65.2484C300.042 65.0733 300.08 64.9305 299.87 64.6989C299.572 64.3733 299.302 64.025 299.02 63.6858C298.306 62.7913 298.382 61.6577 299.202 60.9872C300.01 60.3258 301.117 60.4696 301.845 61.3249C302.132 61.6596 302.424 61.9897 302.684 62.3471C302.88 62.6178 303.038 62.6073 303.275 62.3922C303.644 62.0582 304.027 61.7407 304.424 61.4395C305.217 60.8372 306.32 60.9655 306.947 61.7205Z" fill="#9A69C7"/>
<path d="M106.193 127.071C106.902 126.749 107.745 127.04 108.11 127.748C108.283 128.088 108.448 128.437 108.584 128.793C108.689 129.064 108.808 129.148 109.088 128.995C109.381 128.831 109.694 128.708 110.001 128.575C110.824 128.214 111.672 128.503 112.02 129.256C112.378 130.03 112.033 130.866 111.195 131.259C110.876 131.41 110.56 131.566 110.23 131.691C109.997 131.784 109.973 131.895 110.082 132.107C110.255 132.447 110.407 132.796 110.556 133.153C110.887 133.938 110.56 134.785 109.811 135.113C109.082 135.431 108.249 135.11 107.886 134.364C107.718 134.022 107.559 133.67 107.412 133.319C107.326 133.102 107.224 133.042 107.001 133.156C106.687 133.317 106.362 133.452 106.041 133.598C105.201 133.96 104.342 133.663 103.997 132.89C103.658 132.127 104.001 131.303 104.814 130.922C105.133 130.771 105.449 130.615 105.779 130.49C106.029 130.396 106.054 130.272 105.938 130.044C105.758 129.689 105.594 129.326 105.445 128.957C105.148 128.219 105.479 127.395 106.193 127.071Z" fill="#9A69C7"/>
<path d="M108.826 107.805C111.403 107.805 113.492 105.716 113.492 103.139C113.492 100.562 111.403 98.4731 108.826 98.4731C106.249 98.4731 104.16 100.562 104.16 103.139C104.16 105.716 106.249 107.805 108.826 107.805Z" fill="white"/>
</svg>
