<svg width="448" height="240" viewBox="0 0 448 240" fill="none" xmlns="http://www.w3.org/2000/svg" xmlns:xlink="http://www.w3.org/1999/xlink">
<rect width="448" height="240" fill="#FFF4E5"/>
<mask id="mask0_1096_25020" style="mask-type:alpha" maskUnits="userSpaceOnUse" x="0" y="0" width="448" height="240">
<rect width="448" height="240" fill="#FFF4E5"/>
</mask>
<g mask="url(#mask0_1096_25020)">
<rect x="65.5" y="106" width="316" height="120" rx="6.82196" fill="#FFE5C2" fill-opacity="0.6"/>
<g filter="url(#filter0_d_1096_25020)">
<rect x="56.5" y="77.0461" width="309.682" height="133.131" rx="6.82196" fill="white"/>
<rect x="70.1445" y="90.6902" width="113.699" height="105.844" rx="2.72878" fill="#C4C4C4"/>
<rect x="70.1445" y="90.6902" width="113.699" height="105.844" rx="2.72878" fill="url(#pattern0)"/>
<path d="M196.81 105.181H197.868L199.934 98.0934H200.008L202.074 105.181H203.132L205.577 96.2018H204.408L202.622 103.501H202.547L200.537 96.2018H199.405L197.395 103.501H197.32L195.535 96.2018H194.365L196.81 105.181ZM207.208 105.181H208.29V101.211C208.29 100.035 208.969 99.313 210.039 99.313C211.109 99.313 211.607 99.8916 211.607 101.099V105.181H212.69V100.837C212.69 99.2445 211.85 98.3547 210.344 98.3547C209.354 98.3547 208.726 98.7716 208.39 99.481H208.29V95.8098H207.208V105.181ZM215.222 97.1787C215.633 97.1787 215.969 96.8427 215.969 96.432C215.969 96.0213 215.633 95.6853 215.222 95.6853C214.811 95.6853 214.475 96.0213 214.475 96.432C214.475 96.8427 214.811 97.1787 215.222 97.1787ZM214.675 105.181H215.757V98.4729H214.675V105.181ZM220.181 105.23C220.393 105.23 220.598 105.206 220.81 105.168V104.247C220.611 104.266 220.505 104.272 220.312 104.272C219.615 104.272 219.341 103.955 219.341 103.165V99.369H220.81V98.4729H219.341V96.7369H218.221V98.4729H217.163V99.369H218.221V103.438C218.221 104.72 218.8 105.23 220.181 105.23ZM225.066 105.299C226.646 105.299 227.605 104.403 227.835 103.494L227.847 103.445H226.765L226.74 103.501C226.559 103.905 225.999 104.334 225.091 104.334C223.896 104.334 223.131 103.526 223.1 102.138H227.928V101.715C227.928 99.7112 226.821 98.3547 224.997 98.3547C223.174 98.3547 221.992 99.7734 221.992 101.845V101.852C221.992 103.955 223.149 105.299 225.066 105.299ZM224.991 99.3192C225.981 99.3192 226.715 99.9477 226.827 101.273H223.118C223.237 99.9974 223.996 99.3192 224.991 99.3192ZM235.663 105.181H236.783V97.2098H239.676V96.2018H232.769V97.2098H235.663V105.181ZM240.242 102.069H244.424V101.061H240.242V102.069ZM249.426 105.392C251.43 105.392 252.743 104.347 252.743 102.667V102.661C252.743 101.366 252.003 100.613 250.13 100.197L249.134 99.9725C247.914 99.705 247.423 99.2196 247.423 98.5041V98.4978C247.423 97.5583 248.288 97.0294 249.408 97.0231C250.578 97.0169 251.324 97.6018 251.449 98.3921L251.461 98.4729H252.581L252.575 98.3858C252.482 97.048 251.231 95.9902 249.439 95.9902C247.585 95.9902 246.284 97.0418 246.278 98.5289V98.5352C246.278 99.8356 247.056 100.663 248.854 101.061L249.85 101.279C251.082 101.553 251.598 102.063 251.598 102.81V102.816C251.598 103.731 250.708 104.359 249.489 104.359C248.194 104.359 247.261 103.793 247.18 102.897L247.174 102.829H246.054L246.06 102.897C246.191 104.359 247.46 105.392 249.426 105.392ZM254.535 105.181H255.618V101.211C255.618 100.035 256.296 99.313 257.366 99.313C258.436 99.313 258.934 99.8916 258.934 101.099V105.181H260.017V100.837C260.017 99.2445 259.177 98.3547 257.671 98.3547C256.682 98.3547 256.053 98.7716 255.717 99.481H255.618V95.8098H254.535V105.181ZM262.549 97.1787C262.96 97.1787 263.296 96.8427 263.296 96.432C263.296 96.0213 262.96 95.6853 262.549 95.6853C262.139 95.6853 261.803 96.0213 261.803 96.432C261.803 96.8427 262.139 97.1787 262.549 97.1787ZM262.002 105.181H263.085V98.4729H262.002V105.181ZM265.126 105.181H266.208V101.024C266.208 100.041 266.942 99.3876 267.975 99.3876C268.212 99.3876 268.417 99.4125 268.641 99.4499V98.3983C268.535 98.3796 268.305 98.3547 268.1 98.3547C267.191 98.3547 266.563 98.7654 266.308 99.4685H266.208V98.4729H265.126V105.181ZM272.487 105.23C272.698 105.23 272.903 105.206 273.115 105.168V104.247C272.916 104.266 272.81 104.272 272.617 104.272C271.92 104.272 271.647 103.955 271.647 103.165V99.369H273.115V98.4729H271.647V96.7369H270.527V98.4729H269.469V99.369H270.527V103.438C270.527 104.72 271.105 105.23 272.487 105.23Z" fill="black"/>
<rect x="193.805" y="115.003" width="158.732" height="6.82196" rx="3.41098" fill="#DCDCDE"/>
<rect x="193.805" y="173.577" width="87.1722" height="6.82196" rx="3.41098" fill="#DCDCDE"/>
<rect x="193.805" y="187.221" width="118.305" height="6.82196" rx="3.41098" fill="#DCDCDE"/>
</g>
<g filter="url(#filter1_d_1096_25020)">
<rect x="56.7812" y="27" width="309.682" height="36.8019" rx="18.401" fill="white"/>
<g clip-path="url(#clip0_1096_25020)">
<path d="M73.6022 47.2857L72.9733 49.6338L70.6744 49.6824C69.9874 48.4081 69.5977 46.9502 69.5977 45.4009C69.5977 43.9027 69.962 42.4899 70.6079 41.2458H70.6084L72.655 41.6211L73.5516 43.6555C73.3639 44.2025 73.2616 44.7898 73.2616 45.4009C73.2617 46.0641 73.3819 46.6995 73.6022 47.2857Z" fill="#FBBB00"/>
<path d="M87.5103 43.7134C87.6141 44.2599 87.6682 44.8243 87.6682 45.4012C87.6682 46.048 87.6002 46.679 87.4706 47.2876C87.0308 49.3586 85.8816 51.1671 84.2896 52.4468L84.2891 52.4463L81.7112 52.3148L81.3464 50.0372C82.4027 49.4177 83.2283 48.4482 83.6632 47.2876H78.832V43.7134H83.7336H87.5103Z" fill="#518EF8"/>
<path d="M84.2895 52.4461L84.29 52.4466C82.7417 53.6911 80.7749 54.4357 78.6338 54.4357C75.1932 54.4357 72.2018 52.5126 70.6758 49.6826L73.6036 47.2859C74.3666 49.3222 76.331 50.7717 78.6338 50.7717C79.6237 50.7717 80.551 50.5041 81.3467 50.037L84.2895 52.4461Z" fill="#28B446"/>
<path d="M84.3969 38.4462L81.47 40.8424C80.6465 40.3276 79.673 40.0302 78.63 40.0302C76.275 40.0302 74.274 41.5463 73.5492 43.6556L70.606 41.246H70.6055C72.1091 38.3469 75.1382 36.3662 78.63 36.3662C80.8222 36.3662 82.8322 37.1471 84.3969 38.4462Z" fill="#F14336"/>
</g>
<mask id="mask1_1096_25020" style="mask-type:luminance" maskUnits="userSpaceOnUse" x="335" y="37" width="16" height="16">
<path fill-rule="evenodd" clip-rule="evenodd" d="M345.916 47.3387H346.591L350.858 51.6353L349.584 52.9157L345.309 48.6277V47.9488L345.078 47.7082C344.103 48.5503 342.837 49.0573 341.461 49.0573C338.391 49.0573 335.902 46.5567 335.902 43.4717C335.902 40.3866 338.391 37.886 341.461 37.886C344.53 37.886 347.019 40.3866 347.019 43.4717C347.019 44.8552 346.514 46.127 345.676 47.1066L345.916 47.3387ZM337.612 43.4716C337.612 45.6114 339.331 47.3386 341.46 47.3386C343.589 47.3386 345.308 45.6114 345.308 43.4716C345.308 41.3319 343.589 39.6046 341.46 39.6046C339.331 39.6046 337.612 41.3319 337.612 43.4716Z" fill="white"/>
</mask>
<g mask="url(#mask1_1096_25020)">
<rect x="333.121" y="35.0889" width="20.5228" height="20.624" fill="#FFAB66"/>
</g>
</g>
</g>
<defs>
<filter id="filter0_d_1096_25020" x="29.103" y="54.6304" width="364.474" height="187.925" filterUnits="userSpaceOnUse" color-interpolation-filters="sRGB">
<feFlood flood-opacity="0" result="BackgroundImageFix"/>
<feColorMatrix in="SourceAlpha" type="matrix" values="0 0 0 0 0 0 0 0 0 0 0 0 0 0 0 0 0 0 127 0" result="hardAlpha"/>
<feOffset dy="4.98127"/>
<feGaussianBlur stdDeviation="13.6985"/>
<feColorMatrix type="matrix" values="0 0 0 0 0.397708 0 0 0 0 0.47749 0 0 0 0 0.575 0 0 0 0.1 0"/>
<feBlend mode="normal" in2="BackgroundImageFix" result="effect1_dropShadow_1096_25020"/>
<feBlend mode="normal" in="SourceGraphic" in2="effect1_dropShadow_1096_25020" result="shape"/>
</filter>
<pattern id="pattern0" patternContentUnits="objectBoundingBox" width="1" height="1">
<use xlink:href="#image0_1096_25020" transform="matrix(0.00257869 0 0 0.00277008 -0.118886 0)"/>
</pattern>
<filter id="filter1_d_1096_25020" x="29.3843" y="4.58429" width="364.474" height="91.596" filterUnits="userSpaceOnUse" color-interpolation-filters="sRGB">
<feFlood flood-opacity="0" result="BackgroundImageFix"/>
<feColorMatrix in="SourceAlpha" type="matrix" values="0 0 0 0 0 0 0 0 0 0 0 0 0 0 0 0 0 0 127 0" result="hardAlpha"/>
<feOffset dy="4.98127"/>
<feGaussianBlur stdDeviation="13.6985"/>
<feColorMatrix type="matrix" values="0 0 0 0 0.397708 0 0 0 0 0.47749 0 0 0 0 0.575 0 0 0 0.1 0"/>
<feBlend mode="normal" in2="BackgroundImageFix" result="effect1_dropShadow_1096_25020"/>
<feBlend mode="normal" in="SourceGraphic" in2="effect1_dropShadow_1096_25020" result="shape"/>
</filter>
<clipPath id="clip0_1096_25020">
<rect width="18.0696" height="18.0696" fill="white" transform="translate(69.5977 36.3662)"/>
</clipPath>
</defs>
</svg>
