<svg width="484" height="123" viewBox="0 0 484 123" fill="none" xmlns="http://www.w3.org/2000/svg">
<g filter="url(#filter0_d_1266_16579)">
<rect x="36.9922" y="30" width="410" height="50" rx="25" fill="white"/>
<g clip-path="url(#clip0_1266_16579)">
<path d="M59.2987 57.4995L58.4646 60.6132L55.4161 60.6777C54.505 58.9879 53.9883 57.0546 53.9883 55.0001C53.9883 53.0134 54.4714 51.1399 55.3279 49.4902H55.3285L58.0425 49.9878L59.2314 52.6855C58.9826 53.411 58.847 54.1897 58.847 55.0001C58.8471 55.8795 59.0064 56.7222 59.2987 57.4995Z" fill="#FBBB00"/>
<path d="M77.7424 52.7622C77.88 53.4869 77.9517 54.2354 77.9517 55.0004C77.9517 55.8581 77.8615 56.6948 77.6897 57.5019C77.1065 60.2482 75.5826 62.6463 73.4715 64.3434L73.4708 64.3427L70.0524 64.1683L69.5686 61.1481C70.9694 60.3266 72.0641 59.0409 72.6408 57.5019H66.2344V52.7622H72.7343H77.7424Z" fill="#518EF8"/>
<path d="M73.4707 64.3423L73.4714 64.343C71.4182 65.9933 68.8101 66.9807 65.9709 66.9807C61.4083 66.9807 57.4415 64.4306 55.418 60.6777L59.3005 57.4995C60.3123 60.1998 62.9171 62.122 65.9709 62.122C67.2835 62.122 68.5132 61.7671 69.5684 61.1477L73.4707 64.3423Z" fill="#28B446"/>
<path d="M73.6126 45.7775L69.7314 48.955C68.6393 48.2724 67.3484 47.878 65.9654 47.878C62.8425 47.878 60.1889 49.8884 59.2278 52.6855L55.3249 49.4902H55.3242C57.3182 45.6458 61.335 43.0193 65.9654 43.0193C68.8723 43.0193 71.5377 44.0548 73.6126 45.7775Z" fill="#F14336"/>
</g>
<mask id="mask0_1266_16579" style="mask-type:luminance" maskUnits="userSpaceOnUse" x="406" y="45" width="21" height="20">
<path fill-rule="evenodd" clip-rule="evenodd" d="M419.751 57.5698H420.647L426.305 63.2675L424.616 64.9654L418.946 59.2791V58.3789L418.64 58.0598C417.347 59.1766 415.669 59.8489 413.843 59.8489C409.772 59.8489 406.473 56.5328 406.473 52.4419C406.473 48.351 409.772 45.0349 413.843 45.0349C417.914 45.0349 421.214 48.351 421.214 52.4419C421.214 54.2766 420.545 55.9631 419.434 57.2621L419.751 57.5698ZM408.74 52.4419C408.74 55.2793 411.019 57.5698 413.843 57.5698C416.667 57.5698 418.946 55.2793 418.946 52.4419C418.946 49.6044 416.667 47.3139 413.843 47.3139C411.019 47.3139 408.74 49.6044 408.74 52.4419Z" fill="white"/>
</mask>
<g mask="url(#mask0_1266_16579)">
<rect x="402.781" y="41.3257" width="27.2147" height="27.3489" fill="#FFAB66"/>
</g>
</g>
<defs>
<filter id="filter0_d_1266_16579" x="0.66188" y="0.275203" width="482.661" height="122.661" filterUnits="userSpaceOnUse" color-interpolation-filters="sRGB">
<feFlood flood-opacity="0" result="BackgroundImageFix"/>
<feColorMatrix in="SourceAlpha" type="matrix" values="0 0 0 0 0 0 0 0 0 0 0 0 0 0 0 0 0 0 127 0" result="hardAlpha"/>
<feOffset dy="6.60551"/>
<feGaussianBlur stdDeviation="18.1652"/>
<feColorMatrix type="matrix" values="0 0 0 0 0.397708 0 0 0 0 0.47749 0 0 0 0 0.575 0 0 0 0.1 0"/>
<feBlend mode="normal" in2="BackgroundImageFix" result="effect1_dropShadow_1266_16579"/>
<feBlend mode="normal" in="SourceGraphic" in2="effect1_dropShadow_1266_16579" result="shape"/>
</filter>
<clipPath id="clip0_1266_16579">
<rect width="23.9615" height="23.9615" fill="white" transform="translate(53.9883 43.0193)"/>
</clipPath>
</defs>
</svg>
