<svg width="448" height="240" viewBox="0 0 448 240" fill="none" xmlns="http://www.w3.org/2000/svg">
<mask id="mask0_1096_25048" style="mask-type:alpha" maskUnits="userSpaceOnUse" x="0" y="0" width="448" height="240">
<rect width="448" height="240" fill="#C5D9ED"/>
</mask>
<g mask="url(#mask0_1096_25048)">
<rect width="448" height="240" fill="#C5D9ED" fill-opacity="0.4"/>
<mask id="mask1_1096_25048" style="mask-type:alpha" maskUnits="userSpaceOnUse" x="0" y="0" width="448" height="240">
<rect width="448" height="240" fill="#E9EFF5"/>
</mask>
<g mask="url(#mask1_1096_25048)">
<path d="M149.082 121.263C151.966 121.263 154.304 118.925 154.304 116.041C154.304 113.156 151.966 110.818 149.082 110.818C146.198 110.818 143.859 113.156 143.859 116.041C143.859 118.925 146.198 121.263 149.082 121.263Z" fill="#84A4F0"/>
</g>
<g filter="url(#filter0_d_1096_25048)">
<path d="M354.755 179.591H285.924C280.397 179.591 275.875 175.099 275.875 169.609V86.011C275.875 80.521 280.397 76.0293 285.924 76.0293H354.755C360.282 76.0293 364.804 80.521 364.804 86.011V169.609C364.804 175.099 360.282 179.591 354.755 179.591Z" fill="white"/>
</g>
<path d="M337.17 148.415H289.189C287.681 148.415 286.676 147.167 286.676 145.919C286.676 144.422 287.931 143.424 289.189 143.424H337.17C338.678 143.424 339.681 144.672 339.681 145.919C339.681 147.167 338.426 148.415 337.17 148.415Z" fill="#DCDCDE"/>
<path d="M310.29 162.639H289.189C287.681 162.639 286.676 161.391 286.676 160.144C286.676 158.896 287.931 157.648 289.189 157.648H310.29C311.798 157.648 312.803 158.896 312.803 160.144C312.803 161.641 311.798 162.639 310.29 162.639Z" fill="#DCDCDE"/>
<path d="M334.406 128.948L325.865 130.196C325.362 130.196 325.11 129.946 324.86 129.697L324.61 128.699L319.083 107.238L318.58 103.245L313.053 128.2L312.803 129.447C312.803 129.946 312.3 130.196 311.797 129.946L304.512 129.198H303.759C303.256 129.198 303.004 128.699 303.004 128.2L303.256 127.202L308.781 91.7661L309.034 90.2688C309.034 90.0193 309.284 89.7698 309.787 89.7698H327.121C327.371 89.7698 327.874 90.0193 327.874 90.2688L328.126 91.5164V91.7661L335.159 127.202V127.701C335.159 128.449 334.909 128.699 334.406 128.948Z" fill="#DCDCDE"/>
<path d="M328.128 98.2545C325.867 97.2564 324.109 95.7591 322.601 93.7628C322.348 93.5133 322.601 93.2635 322.851 93.014C323.103 92.7645 323.354 93.014 323.606 93.2635C324.862 95.2601 326.37 96.5077 328.378 97.2564C328.63 97.5059 328.881 97.7555 328.63 98.005C328.63 98.005 328.378 98.2545 328.128 98.2545Z" fill="#C3C4C7"/>
<path d="M309.286 98.2545C311.547 97.2564 313.305 95.7591 314.813 93.7628C315.063 93.5133 314.813 93.2635 314.563 93.014C314.31 92.7645 314.06 93.014 313.808 93.2635C312.552 95.2601 311.044 96.5077 309.036 97.2564C308.783 97.5059 308.533 97.7555 308.783 98.005C308.783 98.005 309.036 98.2545 309.286 98.2545Z" fill="#C3C4C7"/>
<path d="M318.581 100.248C318.328 100.248 318.078 99.9986 318.078 99.7491V92.2627C318.078 92.0132 318.328 91.7637 318.581 91.7637C318.831 91.7637 319.083 92.0132 319.083 92.2627V99.7491C319.083 99.9986 318.831 100.248 318.581 100.248Z" fill="#C3C4C7"/>
<path d="M328.126 92.0178H308.781L309.034 90.5205C309.034 90.271 309.284 90.0215 309.787 90.0215H327.121C327.373 90.0215 327.874 90.271 327.874 90.5205L328.126 92.0178Z" fill="#C3C4C7"/>
<path d="M312.803 128.451L312.55 129.699C312.55 130.198 312.048 130.448 311.545 130.198L304.26 129.449H303.507C303.004 129.449 302.754 128.95 302.754 128.451L303.004 127.453L312.803 128.451Z" fill="#C3C4C7"/>
<path d="M334.404 128.948L325.863 130.195C325.361 130.195 325.108 129.946 324.858 129.696L324.605 128.698L334.907 127.7V128.199C335.157 128.448 334.907 128.698 334.404 128.948Z" fill="#C3C4C7"/>
<g filter="url(#filter1_d_1096_25048)">
<path d="M171.38 179.591H102.549C97.0217 179.591 92.5 175.099 92.5 169.609V86.011C92.5 80.521 97.0217 76.0293 102.549 76.0293H171.38C176.907 76.0293 181.429 80.521 181.429 86.011V169.609C181.429 175.099 176.907 179.591 171.38 179.591Z" fill="white"/>
<path d="M160.454 99.7373C160.203 99.4876 159.951 99.2381 159.7 99.2381C156.686 96.7427 153.922 94.2473 150.908 92.0012C150.657 91.7517 150.154 91.5022 149.652 91.5022C147.391 91.5022 145.13 91.5022 142.869 91.5022C141.864 91.5022 141.362 92.0012 141.362 92.9995C141.11 95.2454 139.352 97.2417 137.091 97.2417C134.579 97.2417 132.569 95.4949 132.318 93.249C132.067 91.0032 131.565 91.7517 124.531 91.5022C123.777 91.5022 123.274 91.7517 122.521 92.251C119.506 94.7463 116.492 97.2417 113.728 99.4876C113.477 99.4876 113.477 99.7373 113.226 99.7373C112.221 100.486 112.221 100.985 112.975 101.983C114.482 103.73 115.989 105.477 117.245 107.224C117.999 107.972 118.25 108.222 119.757 107.473C120.511 107.224 121.767 106.475 123.274 105.726V127.936C123.274 129.433 123.526 129.932 125.284 129.932C132.82 129.932 140.357 129.932 147.893 129.932C149.652 129.932 149.903 129.683 149.903 127.936V105.726C151.661 106.475 152.917 107.224 153.671 107.473C155.178 108.222 155.43 107.972 156.183 107.224C157.691 105.477 159.198 103.73 160.705 101.983C161.459 101.234 161.459 100.486 160.454 99.7373Z" fill="#DCDCDE"/>
<path d="M146.891 107.223L144.379 108.97C144.128 109.22 143.374 109.22 143.123 108.97L140.61 107.223C140.359 106.973 140.359 106.724 140.359 106.724V102.731C140.359 102.482 140.61 102.232 140.862 102.232H146.64C146.891 102.232 147.142 102.482 147.142 102.731V106.724C147.142 106.973 146.891 107.223 146.891 107.223Z" fill="#C3C4C7"/>
<path d="M120.261 107.473C118.754 108.222 118.503 107.972 117.749 107.224C116.242 105.477 114.735 103.73 113.479 101.983C112.725 100.985 112.725 100.486 113.73 99.7373C113.981 99.7373 113.981 99.4878 114.232 99.4878L120.261 107.473Z" fill="#C3C4C7"/>
<path d="M160.96 101.981C159.453 103.728 157.945 105.475 156.438 107.222C155.684 107.97 155.433 107.97 153.926 107.471L159.955 99.2363C160.206 99.4858 160.457 99.7356 160.709 99.7356C161.714 100.484 161.714 101.233 160.96 101.981Z" fill="#C3C4C7"/>
</g>
<path d="M153.795 148.415H105.814C104.306 148.415 103.301 147.167 103.301 145.919C103.301 144.422 104.556 143.424 105.814 143.424H153.795C155.303 143.424 156.306 144.672 156.306 145.919C156.306 147.167 155.051 148.415 153.795 148.415Z" fill="#DCDCDE"/>
<path d="M126.915 162.639H105.814C104.306 162.639 103.301 161.391 103.301 160.144C103.301 158.896 104.556 157.648 105.814 157.648H126.915C128.423 157.648 129.428 158.896 129.428 160.144C129.428 161.641 128.423 162.639 126.915 162.639Z" fill="#DCDCDE"/>
<g filter="url(#filter2_d_1096_25048)">
<path d="M262.695 196.863H169.386C161.713 196.863 155.574 190.765 155.574 183.143V69.7204C155.574 62.098 161.713 56 169.386 56H262.695C270.368 56 276.507 62.098 276.507 69.7204V183.143C276.199 190.765 270.062 196.863 262.695 196.863Z" fill="white"/>
</g>
<path d="M238.401 159.393H173.638C171.796 159.393 170.262 157.869 170.262 156.039C170.262 154.21 171.796 152.686 173.638 152.686H238.401C240.243 152.686 241.777 154.21 241.777 156.039C241.777 157.869 240.243 159.393 238.401 159.393Z" fill="#3361CC"/>
<path d="M202.183 178.598H173.638C171.796 178.598 170.262 177.073 170.262 175.244C170.262 173.415 171.796 171.89 173.638 171.89H202.183C204.024 171.89 205.559 173.415 205.559 175.244C205.252 177.073 204.024 178.598 202.183 178.598Z" fill="#3361CC"/>
<path d="M254.056 115.487C253.749 114.877 253.443 114.268 253.136 113.963C251.908 112.438 250.373 110.914 247.611 109.999C243.927 108.779 240.858 108.474 238.096 108.17C237.482 108.17 236.561 108.17 235.947 107.865C227.66 106.95 220.907 105.73 206.175 87.4365C204.64 85.607 204.026 83.7778 202.184 81.9484C200.65 80.4238 197.887 82.2533 194.511 82.863C193.897 83.1679 192.976 83.1679 192.363 83.1679C189.6 83.1679 186.531 82.863 183.768 82.5581C179.778 82.2533 182.234 80.1189 177.323 109.999C177.016 112.133 176.709 114.572 176.402 116.707C176.402 118.536 176.095 120.671 176.402 122.5C176.402 123.415 176.402 124.634 177.63 124.634C190.214 125.854 198.194 125.244 218.145 125.244C228.274 125.244 238.096 125.244 247.918 123.415L250.373 123.11C252.215 122.805 254.67 122.195 254.67 120.671C254.977 119.146 254.67 117.316 254.056 115.487Z" fill="#99C1EA"/>
<path d="M238.403 108.172L236.255 114.88C223.364 114.27 210.165 106.343 203.413 95.9764C200.957 92.3176 199.116 88.3541 196.353 85.3049C196.353 85.3049 195.433 84.3903 194.512 83.4757C197.888 82.8657 200.344 80.7314 202.185 82.5609C203.413 83.7806 204.027 85 204.948 86.2197C205.255 86.5246 205.562 87.1344 205.869 87.4392L206.175 87.7441C207.096 88.9638 208.017 89.8784 208.938 90.7932C209.245 91.0981 209.552 91.403 209.859 91.7078C210.779 92.9275 211.7 93.8421 212.621 94.7567C212.928 95.0618 213.235 95.3667 213.542 95.6716C214.462 96.5862 215.383 97.501 216.304 98.4156C216.611 98.7205 216.918 99.0253 217.225 99.3302C218.146 100.245 219.067 100.855 219.987 101.465C220.294 101.769 220.908 102.074 221.215 102.379C221.829 102.989 222.75 103.294 223.364 103.904C223.978 104.209 224.285 104.514 224.898 104.819C226.433 105.428 227.661 106.038 228.889 106.648C229.502 106.953 229.809 106.953 230.423 106.953C232.572 107.563 234.413 107.563 236.562 107.867C236.869 108.172 237.483 108.172 238.403 108.172Z" fill="#3361CC"/>
<path d="M254.977 121.28C254.977 122.804 252.508 123.414 250.656 123.719L248.187 124.024C238.309 125.853 228.123 125.853 218.245 125.853C198.181 125.853 190.156 126.463 177.5 125.244C176.574 125.244 176.574 124.024 176.266 123.109C176.266 121.28 176.266 119.146 176.266 117.316C183.365 117.926 213.615 119.45 236.457 117.011C242.939 116.402 248.495 115.487 253.125 113.962C253.434 114.572 253.743 114.877 254.051 115.487C254.669 117.316 254.977 119.146 254.977 121.28Z" fill="#E9EFF5"/>
<path d="M254.017 115.162C249.413 116.687 244.502 117.602 239.591 118.212C238.67 118.212 238.056 118.212 237.442 117.907C237.135 117.602 236.829 116.992 236.829 116.687C236.829 116.382 236.829 116.077 236.829 116.077C236.522 113.333 236.215 110.589 236.522 107.845C239.898 108.15 243.581 108.455 248.185 109.979C250.948 110.894 252.482 112.114 253.71 113.943C253.403 113.943 253.71 114.553 254.017 115.162Z" fill="#E9EFF5"/>
<path d="M205.869 87.1348C205.869 87.4396 205.869 87.4396 205.869 87.1348L202.493 89.8788C202.493 89.8788 202.186 90.1839 201.879 90.1839C201.572 90.1839 201.265 90.1837 201.265 89.8788C200.958 89.5739 200.958 88.9642 201.265 88.6593L204.642 85.9153C204.642 85.9153 204.642 85.9153 204.949 85.9153C205.256 86.525 205.562 86.8299 205.869 87.1348Z" fill="#F7EDF7"/>
<path d="M209.551 91.7038C209.551 91.7038 209.551 92.0087 209.244 92.0087C208.324 93.2284 207.096 94.143 205.868 95.0576C205.868 95.0576 205.561 95.3625 205.254 95.3625C204.947 95.3625 204.64 95.3627 204.64 95.0576C204.333 94.7527 204.333 94.143 204.64 93.8381C205.868 92.9233 206.789 92.0087 208.017 90.7892C208.324 90.4841 208.324 90.4841 208.631 90.4841C208.937 91.0941 209.244 91.399 209.551 91.7038Z" fill="#F7EDF7"/>
<path d="M213.235 95.6728C213.235 95.9777 213.235 95.9777 212.928 95.9777C211.7 97.1972 210.78 98.4169 209.552 99.3315C209.245 99.6366 209.245 99.6366 208.938 99.6366C208.631 99.6366 208.631 99.6366 208.324 99.3315C208.017 99.0266 208.017 98.4169 208.324 98.112C209.552 96.8923 210.473 95.6728 211.7 94.758C211.7 94.758 212.007 94.4531 212.314 94.4531C212.621 95.0631 212.928 95.368 213.235 95.6728Z" fill="#F7EDF7"/>
<path d="M217.226 99.3264C217.226 99.6315 217.226 99.6315 216.919 99.6315C215.691 100.546 214.463 101.766 213.235 103.29C212.928 103.595 212.928 103.595 212.621 103.595C212.315 103.595 212.315 103.595 212.008 103.29C211.701 102.985 211.701 102.376 212.008 102.071C213.235 100.546 214.463 99.3264 215.691 98.1069H215.998C216.305 98.7167 216.612 99.3264 217.226 99.3264Z" fill="#F7EDF7"/>
<path d="M220.904 102.681C219.983 104.205 219.063 105.73 218.449 107.254C218.449 107.559 218.142 107.559 217.835 107.559H217.528C217.221 107.254 216.914 106.949 217.221 106.34C218.142 104.815 218.756 103.291 219.676 101.766C219.676 101.766 219.676 101.461 219.983 101.461C220.29 102.071 220.597 102.376 220.904 102.681Z" fill="#E9EFF5"/>
<path d="M224.59 104.815L223.976 109.694C223.976 109.998 223.669 110.303 223.055 110.303C222.748 110.303 222.441 109.694 222.441 109.389L223.362 104.205C223.362 104.205 223.362 103.9 223.669 103.9C223.669 104.205 223.976 104.51 224.59 104.815Z" fill="#F7EDF7"/>
<path d="M230.116 106.95C229.809 108.474 229.809 109.694 229.502 111.218C229.502 111.523 229.195 111.828 228.581 111.828C228.581 111.828 228.581 111.828 228.274 111.828C227.967 111.828 227.66 111.218 227.66 110.913C227.967 109.389 228.274 108.169 228.274 106.645C228.888 106.645 229.502 106.95 230.116 106.95Z" fill="#F7EDF7"/>
<path d="M190.828 102.68C194.388 102.68 197.274 99.8138 197.274 96.2774C197.274 92.7413 194.388 89.8745 190.828 89.8745C187.268 89.8745 184.383 92.7413 184.383 96.2774C184.383 99.8138 187.268 102.68 190.828 102.68Z" fill="white"/>
<path d="M190.829 99.0215C192.354 99.0215 193.591 97.793 193.591 96.2775C193.591 94.7619 192.354 93.5334 190.829 93.5334C189.303 93.5334 188.066 94.7619 188.066 96.2775C188.066 97.793 189.303 99.0215 190.829 99.0215Z" fill="#3361CC"/>
</g>
<defs>
<filter id="filter0_d_1096_25048" x="221.359" y="48.7713" width="197.962" height="212.594" filterUnits="userSpaceOnUse" color-interpolation-filters="sRGB">
<feFlood flood-opacity="0" result="BackgroundImageFix"/>
<feColorMatrix in="SourceAlpha" type="matrix" values="0 0 0 0 0 0 0 0 0 0 0 0 0 0 0 0 0 0 127 0" result="hardAlpha"/>
<feOffset dy="27.258"/>
<feGaussianBlur stdDeviation="27.258"/>
<feColorMatrix type="matrix" values="0 0 0 0 0.397708 0 0 0 0 0.47749 0 0 0 0 0.575 0 0 0 0.1 0"/>
<feBlend mode="normal" in2="BackgroundImageFix" result="effect1_dropShadow_1096_25048"/>
<feBlend mode="normal" in="SourceGraphic" in2="effect1_dropShadow_1096_25048" result="shape"/>
</filter>
<filter id="filter1_d_1096_25048" x="37.984" y="48.7713" width="197.962" height="212.594" filterUnits="userSpaceOnUse" color-interpolation-filters="sRGB">
<feFlood flood-opacity="0" result="BackgroundImageFix"/>
<feColorMatrix in="SourceAlpha" type="matrix" values="0 0 0 0 0 0 0 0 0 0 0 0 0 0 0 0 0 0 127 0" result="hardAlpha"/>
<feOffset dy="27.258"/>
<feGaussianBlur stdDeviation="27.258"/>
<feColorMatrix type="matrix" values="0 0 0 0 0.397708 0 0 0 0 0.47749 0 0 0 0 0.575 0 0 0 0.1 0"/>
<feBlend mode="normal" in2="BackgroundImageFix" result="effect1_dropShadow_1096_25048"/>
<feBlend mode="normal" in="SourceGraphic" in2="effect1_dropShadow_1096_25048" result="shape"/>
</filter>
<filter id="filter2_d_1096_25048" x="100.049" y="19.7197" width="231.984" height="251.913" filterUnits="userSpaceOnUse" color-interpolation-filters="sRGB">
<feFlood flood-opacity="0" result="BackgroundImageFix"/>
<feColorMatrix in="SourceAlpha" type="matrix" values="0 0 0 0 0 0 0 0 0 0 0 0 0 0 0 0 0 0 127 0" result="hardAlpha"/>
<feOffset dy="19.2448"/>
<feGaussianBlur stdDeviation="27.7625"/>
<feColorMatrix type="matrix" values="0 0 0 0 0.397708 0 0 0 0 0.47749 0 0 0 0 0.575 0 0 0 0.16 0"/>
<feBlend mode="normal" in2="BackgroundImageFix" result="effect1_dropShadow_1096_25048"/>
<feBlend mode="normal" in="SourceGraphic" in2="effect1_dropShadow_1096_25048" result="shape"/>
</filter>
</defs>
</svg>
